<?xml version="1.0" encoding="utf-8"?>
<!-- Generator: Adobe Illustrator 24.3.0, SVG Export Plug-In . SVG Version: 6.00 Build 0)  -->
<svg version="1.1" id="katman_1" xmlns="http://www.w3.org/2000/svg" xmlns:xlink="http://www.w3.org/1999/xlink" x="0px" y="0px"
	 viewBox="0 0 763.2 269.8" style="enable-background:new 0 0 763.2 269.8;" xml:space="preserve">
<g>
	<path d="M117.7,60.7c13.4,7.2,23.7,17.2,30.9,30c7.2,12.8,10.8,27.4,10.8,43.7c0,16.2-3.6,30.8-10.8,43.7
		c-7.2,13-17.5,23.2-30.9,30.6c-13.4,7.5-29,11.2-46.7,11.2H0V49.8h70.9C88.7,49.8,104.3,53.4,117.7,60.7z M94.7,162.6
		c7-6.6,10.6-15.9,10.6-28.1c0-12.2-3.5-21.5-10.6-28.1c-7.1-6.6-16.6-9.9-28.6-9.9H53.4v76h12.7C78.1,172.4,87.6,169.1,94.7,162.6z
		"/>
</g>
<path d="M488.5,206.1c-12.9-9.3-19.9-22.9-20.9-40.8h55.2c0.8,9.5,5,14.3,12.6,14.3c2.8,0,5.2-0.7,7.1-2c1.9-1.3,2.9-3.4,2.9-6.2
	c0-3.9-2.1-7.1-6.3-9.5c-4.2-2.4-10.8-5.2-19.7-8.3c-10.6-3.7-19.4-7.4-26.3-11c-6.9-3.6-12.9-8.8-17.9-15.7
	c-5-6.9-7.4-15.7-7.3-26.5c0-10.8,2.8-19.9,8.3-27.5c5.5-7.6,13.1-13.3,22.7-17.2c9.6-3.9,20.4-5.9,32.4-5.9
	c20.3,0,36.4,4.7,48.3,14c11.9,9.4,18.2,22.6,18.8,39.6h-55.9c-0.2-4.7-1.3-8-3.5-10.1c-2.2-2-4.8-3-8-3c-2.2,0-4,0.7-5.4,2.2
	c-1.4,1.5-2.1,3.6-2.1,6.2c0,3.7,2.1,6.8,6.2,9.2c4.1,2.4,10.7,5.3,19.8,8.8c10.5,3.9,19.1,7.6,25.9,11.2c6.8,3.6,12.7,8.6,17.7,15
	c5,6.4,7.5,14.4,7.5,24.1c0,10.1-2.5,19.2-7.5,27.3c-5,8-12.3,14.3-21.8,18.8c-9.5,4.5-20.8,6.8-33.9,6.8
	C517.8,220,501.4,215.4,488.5,206.1z"/>
<path d="M763.2,49.8v42.3H718V220h-53.4V92.1H620V49.8H763.2z"/>
<g>
	<path d="M380,134.9c0,36.7-29.8,66.5-66.5,66.5S247,171.6,247,134.9c0-36.7,29.8-66.5,66.5-66.5C350.1,68.4,380,98.2,380,134.9z
		 M448.4,134.9c0,74.5-60.4,134.9-134.9,134.9c-74.5,0-134.9-60.4-134.9-134.9C178.6,60.4,239,0,313.5,0
		C388,0,448.4,60.4,448.4,134.9z M400.2,134.9c0-47.9-38.9-86.7-86.8-86.7s-86.8,38.8-86.8,86.7c0,47.9,38.8,86.7,86.8,86.7
		C361.4,221.7,400.2,182.8,400.2,134.9z"/>
</g>
</svg>
